<svg width="140" height="141" viewBox="0 0 140 141" fill="none" xmlns="http://www.w3.org/2000/svg">
<path d="M140 70.5C140 84.3447 135.895 97.8785 128.203 109.39C120.511 120.901 109.579 129.873 96.7878 135.172C83.997 140.47 69.9223 141.856 56.3437 139.155C42.765 136.454 30.2922 129.787 20.5025 119.997C10.7128 110.208 4.046 97.735 1.34503 84.1563C-1.35594 70.5777 0.0302985 56.503 5.32843 43.7122C10.6266 30.9213 19.5986 19.9888 31.1101 12.2971C42.6215 4.60543 56.1553 0.5 70 0.5V70.5H140Z" fill="#FFCF96"/>
<path d="M70 0.5C79.1925 0.5 88.2951 2.31061 96.7878 5.82843C105.281 9.34627 112.997 14.5024 119.497 21.0025C125.998 27.5026 131.154 35.2194 134.672 43.7122C138.189 52.205 140 61.3075 140 70.5L70 70.5L70 0.5Z" fill="#AAC7F3"/>
</svg>
