<svg width="24" height="24" viewBox="0 0 24 24" fill="none" xmlns="http://www.w3.org/2000/svg">
<path d="M2.62955 0.63534C2.85796 0.242344 3.28009 0 3.7369 0H8.6534C9.11011 0 9.53234 0.242344 9.76065 0.63534L12.2191 4.86721C12.4472 5.26031 12.4472 5.74469 12.2191 6.13789L9.76065 10.3695C9.53224 10.7626 9.11011 11.0048 8.6534 11.0048H3.7369C3.28009 11.0048 2.85796 10.7626 2.62955 10.3695L0.171304 6.13769C-0.0571013 5.74449 -0.0571013 5.26011 0.171304 4.86701L2.62955 0.63534ZM2.73204 13.6308C2.96045 13.2377 3.38258 12.9955 3.83929 12.9955H8.75589C9.2126 12.9955 9.63473 13.2377 9.86303 13.6308L12.3214 17.8626C12.5497 18.2556 12.5497 18.7399 12.3214 19.1333L9.86303 23.3647C9.63473 23.7578 9.2127 24 8.75589 24H3.83929C3.38248 24 2.96045 23.7578 2.73204 23.3647L0.273795 19.1334C0.0453895 18.74 0.0453895 18.2557 0.273795 17.8627L2.73204 13.6308ZM14.2393 7.27744C14.4676 6.88444 14.8898 6.6421 15.3465 6.6421H20.263C20.72 6.6421 21.142 6.88444 21.3703 7.27744L23.8287 11.5093C24.0571 11.9023 24.0571 12.3866 23.8287 12.78L21.3703 17.0114C21.142 17.4045 20.72 17.6467 20.2631 17.6467H15.3467C14.89 17.6467 14.4678 17.4045 14.2395 17.0114L11.7811 12.7799C11.5528 12.3865 11.5528 11.9022 11.7811 11.5092L14.2393 7.27744Z" fill="white"/>
</svg>
