<svg width="24" height="24" viewBox="0 0 24 24" fill="none" xmlns="http://www.w3.org/2000/svg">
<path d="M12.315 10.8026C11.4714 10.7938 10.6494 10.5369 9.95229 10.0643C9.25521 9.59173 8.71428 8.92456 8.39761 8.14679C8.08093 7.36903 8.00267 6.51546 8.17267 5.69354C8.34266 4.87163 8.75333 4.11812 9.35295 3.52788C9.95257 2.93764 10.7143 2.53706 11.5424 2.37657C12.3704 2.21609 13.2276 2.30287 14.0062 2.626C14.7847 2.94913 15.4497 3.49416 15.9175 4.19246C16.3853 4.89076 16.6349 5.71112 16.635 6.55025C16.627 7.68338 16.1679 8.76719 15.3582 9.56425C14.5485 10.3613 13.4541 10.8066 12.315 10.8026ZM12.315 3.78991C11.7681 3.79874 11.2361 3.96809 10.7857 4.27672C10.3353 4.58534 9.98665 5.01946 9.7835 5.52456C9.58035 6.02966 9.53178 6.58321 9.64388 7.11568C9.75598 7.64815 10.0238 8.13579 10.4136 8.51737C10.8034 8.89894 11.2979 9.15743 11.8349 9.26036C12.372 9.36329 12.9276 9.30607 13.432 9.0959C13.9365 8.88572 14.3673 8.53196 14.6702 8.07905C14.9732 7.62614 15.1349 7.09427 15.135 6.55025C15.127 5.81284 14.826 5.10854 14.2975 4.59129C13.7691 4.07405 13.0563 3.78593 12.315 3.78991Z" fill="white"/>
<path d="M12.3151 10.8026C11.4716 10.7938 10.6495 10.5369 9.95242 10.0643C9.25534 9.59174 8.71442 8.92456 8.39774 8.14679C8.08107 7.36903 8.0028 6.51546 8.1728 5.69355C8.3428 4.87163 8.75346 4.11812 9.35308 3.52788C9.9527 2.93764 10.7145 2.53706 11.5425 2.37657C12.3705 2.21609 13.2278 2.30287 14.0063 2.626C14.7848 2.94913 15.4499 3.49416 15.9176 4.19246C16.3854 4.89076 16.635 5.71112 16.6351 6.55025C16.6272 7.68338 16.168 8.76719 15.3583 9.56425C14.5486 10.3613 13.4543 10.8066 12.3151 10.8026ZM12.3151 3.78991C11.7683 3.79874 11.2362 3.96809 10.7858 4.27672C10.3355 4.58534 9.98679 5.01946 9.78364 5.52456C9.58049 6.02966 9.53191 6.58321 9.64402 7.11568C9.75612 7.64815 10.0239 8.13579 10.4137 8.51737C10.8035 8.89894 11.298 9.15743 11.8351 9.26036C12.3721 9.36329 12.9277 9.30607 13.4322 9.0959C13.9366 8.88573 14.3674 8.53196 14.6704 8.07905C14.9733 7.62614 15.135 7.09427 15.1351 6.55025C15.1272 5.81284 14.8261 5.10854 14.2977 4.59129C13.7692 4.07405 13.0565 3.78593 12.3151 3.78991ZM14.9326 11.8023C11.606 11.2265 8.18137 11.7506 5.1826 13.2944C4.96973 13.412 4.79346 13.5855 4.67309 13.796C4.55272 14.0066 4.49287 14.246 4.5001 14.4881V17.144C4.5001 17.3418 4.57911 17.5316 4.71977 17.6715C4.86042 17.8114 5.05118 17.89 5.2501 17.89C5.44901 17.89 5.63977 17.8114 5.78043 17.6715C5.92108 17.5316 6.0001 17.3418 6.0001 17.144V14.5851C8.78085 13.1972 11.9431 12.7568 15.0001 13.3317L14.9326 11.8023Z" fill="white"/>
<path d="M23.25 15.0476H18.225V13.9435C18.225 13.7456 18.146 13.5558 18.0053 13.4159C17.8647 13.276 17.6739 13.1974 17.475 13.1974C17.2761 13.1974 17.0853 13.276 16.9447 13.4159C16.804 13.5558 16.725 13.7456 16.725 13.9435V15.0476H11.25C11.0511 15.0476 10.8603 15.1262 10.7197 15.2661C10.579 15.406 10.5 15.5958 10.5 15.7936V23.254C10.5 23.4518 10.579 23.6416 10.7197 23.7815C10.8603 23.9214 11.0511 24 11.25 24H23.25C23.4489 24 23.6397 23.9214 23.7803 23.7815C23.921 23.6416 24 23.4518 24 23.254V15.7936C24 15.5958 23.921 15.406 23.7803 15.2661C23.6397 15.1262 23.4489 15.0476 23.25 15.0476ZM22.5 22.5079H12V16.5397H16.725V16.8455C16.725 17.0434 16.804 17.2332 16.9447 17.3731C17.0853 17.513 17.2761 17.5916 17.475 17.5916C17.6739 17.5916 17.8647 17.513 18.0053 17.3731C18.146 17.2332 18.225 17.0434 18.225 16.8455V16.5397H22.5V22.5079Z" fill="white"/>
<path d="M14.8575 19.0911H19.3275V20.1355H14.8575V19.0911ZM6.63 7.76626C4.55358 7.80082 2.51317 8.31141 0.6675 9.25833C0.466772 9.3638 0.298633 9.52155 0.181061 9.71472C0.0634892 9.90788 0.000905135 10.1292 0 10.355V12.6677C0 12.8656 0.0790176 13.0553 0.21967 13.1952C0.360322 13.3352 0.551088 13.4138 0.75 13.4138C0.948912 13.4138 1.13968 13.3352 1.28033 13.1952C1.42098 13.0553 1.5 12.8656 1.5 12.6677V10.5042C3.26347 9.63107 5.21592 9.20319 7.185 9.25833C6.92737 8.79077 6.74037 8.28802 6.63 7.76626ZM23.3325 9.25087C21.6771 8.38712 19.8579 7.87879 17.9925 7.7588C17.8827 8.27964 17.6983 8.78211 17.445 9.25087C19.2023 9.29271 20.9285 9.72072 22.5 10.5042V12.6677C22.5 12.8656 22.579 13.0553 22.7197 13.1952C22.8603 13.3352 23.0511 13.4138 23.25 13.4138C23.4489 13.4138 23.6397 13.3352 23.7803 13.1952C23.921 13.0553 24 12.8656 24 12.6677V10.355C24.0005 10.1279 23.9385 9.90505 23.8209 9.71045C23.7032 9.51585 23.5344 9.35693 23.3325 9.25087ZM6.495 6.55022V6.05038C5.90746 5.97217 5.37289 5.67157 5.00255 5.21116C4.63222 4.75075 4.45467 4.16601 4.50685 3.57866C4.55904 2.9913 4.83694 2.4466 5.28271 2.05794C5.72849 1.66927 6.30778 1.4666 6.9 1.4921C7.51599 1.49099 8.10805 1.72924 8.55 2.15607C8.93992 1.83616 9.36818 1.56553 9.825 1.35035C9.31471 0.766698 8.6386 0.350546 7.88579 0.156749C7.13298 -0.0370473 6.3388 0.000608378 5.60793 0.264753C4.87706 0.528898 4.24381 1.00713 3.79165 1.63642C3.33948 2.26572 3.08962 3.01653 3.075 3.78989C3.09074 4.73643 3.46065 5.64313 4.11248 6.3329C4.7643 7.02267 5.65122 7.44595 6.6 7.52007C6.53638 7.20049 6.50124 6.87595 6.495 6.55022ZM17.0775 2.98983e-05C16.5621 0.000142764 16.0519 0.102465 15.5767 0.301014C15.1015 0.499563 14.6709 0.790354 14.31 1.15639C14.817 1.33914 15.2965 1.59016 15.735 1.90242C16.0851 1.66065 16.4947 1.51794 16.9199 1.4895C17.3452 1.46105 17.7703 1.54795 18.1498 1.74092C18.5293 1.93389 18.8491 2.2257 19.075 2.58523C19.3009 2.94476 19.4244 3.35853 19.4325 3.78243C19.4278 4.21785 19.2992 4.64303 19.0616 5.00875C18.824 5.37447 18.4871 5.66578 18.09 5.84895C18.1202 6.079 18.1352 6.31077 18.135 6.54276C18.133 6.84264 18.1079 7.14193 18.06 7.43801C18.877 7.22907 19.6017 6.75731 20.1212 6.09616C20.6408 5.43501 20.926 4.62156 20.9325 3.78243C20.9226 2.77327 20.5116 1.80902 19.7893 1.10031C19.067 0.391603 18.0921 -0.00396037 17.0775 2.98983e-05Z" fill="white"/>
</svg>