<svg width="24" height="24" viewBox="0 0 24 24" fill="none" xmlns="http://www.w3.org/2000/svg">
<path d="M22.9394 0.635748L18.1904 5.38477L15 2.19727L14.997 2.2002L14.994 2.19727L8.19136 9H3V10.5H8.81252L14.997 4.31543L18.1816 7.5L18.1904 7.49414L18.1963 7.5L24 1.69629L22.9394 0.635748Z" fill="#27AE60"/>
<path d="M1.5 0V21H0V22.5H1.5V24H3V22.5H24V21H23.5605L18.1963 15.6357L18.1904 15.6416L18.1816 15.6357L14.997 18.8203L8.8125 12.6357H3.00001V0H1.5ZM3 14.1357H8.19141L14.9941 20.9385L14.9971 20.9355L15.0001 20.9385L18.1906 17.751L21.3781 20.9385L21.4395 21H3V14.1357Z" fill="white"/>
</svg>
