<svg width="37" height="43" viewBox="0 0 37 43" fill="none" xmlns="http://www.w3.org/2000/svg">
<path d="M10 16.5C9.45 16.5 8.97933 16.3043 8.588 15.913C8.196 15.521 8 15.05 8 14.5V2.5C8 1.95 8.196 1.47933 8.588 1.088C8.97933 0.696 9.45 0.5 10 0.5H16L18 2.5H26C26.55 2.5 27.021 2.696 27.413 3.088C27.8043 3.47933 28 3.95 28 4.5H17.175L15.175 2.5H10V14.5L12.4 6.5H29.5L26.925 15.075C26.7917 15.5083 26.546 15.8543 26.188 16.113C25.8293 16.371 25.4333 16.5 25 16.5H10ZM12.1 14.5H25L26.8 8.5H13.9L12.1 14.5Z" fill="#14B441"/>
<path d="M5.652 29.136V30.024H2.016V32.844H4.968V33.732H2.016V37.5H0.924V29.136H5.652ZM9.83888 37.608C9.22288 37.608 8.66288 37.468 8.15888 37.188C7.66288 36.908 7.27088 36.512 6.98288 36C6.70288 35.48 6.56288 34.88 6.56288 34.2C6.56288 33.528 6.70688 32.936 6.99488 32.424C7.29088 31.904 7.69088 31.508 8.19488 31.236C8.69888 30.956 9.26288 30.816 9.88688 30.816C10.5109 30.816 11.0749 30.956 11.5789 31.236C12.0829 31.508 12.4789 31.9 12.7669 32.412C13.0629 32.924 13.2109 33.52 13.2109 34.2C13.2109 34.88 13.0589 35.48 12.7549 36C12.4589 36.512 12.0549 36.908 11.5429 37.188C11.0309 37.468 10.4629 37.608 9.83888 37.608ZM9.83888 36.648C10.2309 36.648 10.5989 36.556 10.9429 36.372C11.2869 36.188 11.5629 35.912 11.7709 35.544C11.9869 35.176 12.0949 34.728 12.0949 34.2C12.0949 33.672 11.9909 33.224 11.7829 32.856C11.5749 32.488 11.3029 32.216 10.9669 32.04C10.6309 31.856 10.2669 31.764 9.87488 31.764C9.47488 31.764 9.10688 31.856 8.77088 32.04C8.44288 32.216 8.17888 32.488 7.97888 32.856C7.77888 33.224 7.67888 33.672 7.67888 34.2C7.67888 34.736 7.77488 35.188 7.96688 35.556C8.16688 35.924 8.43088 36.2 8.75888 36.384C9.08688 36.56 9.44688 36.648 9.83888 36.648ZM15.7387 28.62V37.5H14.6467V28.62H15.7387ZM17.1918 34.188C17.1918 33.516 17.3278 32.928 17.5998 32.424C17.8718 31.912 18.2438 31.516 18.7158 31.236C19.1958 30.956 19.7318 30.816 20.3238 30.816C20.8358 30.816 21.3118 30.936 21.7518 31.176C22.1918 31.408 22.5278 31.716 22.7598 32.1V28.62H23.8638V37.5H22.7598V36.264C22.5438 36.656 22.2238 36.98 21.7998 37.236C21.3758 37.484 20.8798 37.608 20.3118 37.608C19.7278 37.608 19.1958 37.464 18.7158 37.176C18.2438 36.888 17.8718 36.484 17.5998 35.964C17.3278 35.444 17.1918 34.852 17.1918 34.188ZM22.7598 34.2C22.7598 33.704 22.6598 33.272 22.4598 32.904C22.2598 32.536 21.9878 32.256 21.6438 32.064C21.3078 31.864 20.9358 31.764 20.5278 31.764C20.1198 31.764 19.7478 31.86 19.4118 32.052C19.0758 32.244 18.8078 32.524 18.6078 32.892C18.4078 33.26 18.3078 33.692 18.3078 34.188C18.3078 34.692 18.4078 35.132 18.6078 35.508C18.8078 35.876 19.0758 36.16 19.4118 36.36C19.7478 36.552 20.1198 36.648 20.5278 36.648C20.9358 36.648 21.3078 36.552 21.6438 36.36C21.9878 36.16 22.2598 35.876 22.4598 35.508C22.6598 35.132 22.7598 34.696 22.7598 34.2ZM31.7092 33.96C31.7092 34.168 31.6972 34.388 31.6732 34.62H26.4172C26.4572 35.268 26.6772 35.776 27.0772 36.144C27.4852 36.504 27.9772 36.684 28.5532 36.684C29.0252 36.684 29.4172 36.576 29.7292 36.36C30.0492 36.136 30.2732 35.84 30.4012 35.472H31.5772C31.4012 36.104 31.0492 36.62 30.5212 37.02C29.9932 37.412 29.3372 37.608 28.5532 37.608C27.9292 37.608 27.3692 37.468 26.8732 37.188C26.3852 36.908 26.0012 36.512 25.7212 36C25.4412 35.48 25.3012 34.88 25.3012 34.2C25.3012 33.52 25.4372 32.924 25.7092 32.412C25.9812 31.9 26.3612 31.508 26.8492 31.236C27.3452 30.956 27.9132 30.816 28.5532 30.816C29.1772 30.816 29.7292 30.952 30.2092 31.224C30.6892 31.496 31.0572 31.872 31.3132 32.352C31.5772 32.824 31.7092 33.36 31.7092 33.96ZM30.5812 33.732C30.5812 33.316 30.4892 32.96 30.3052 32.664C30.1212 32.36 29.8692 32.132 29.5492 31.98C29.2372 31.82 28.8892 31.74 28.5052 31.74C27.9532 31.74 27.4812 31.916 27.0892 32.268C26.7052 32.62 26.4852 33.108 26.4292 33.732H30.5812ZM34.2426 31.992C34.4346 31.616 34.7066 31.324 35.0586 31.116C35.4186 30.908 35.8546 30.804 36.3666 30.804V31.932H36.0786C34.8546 31.932 34.2426 32.596 34.2426 33.924V37.5H33.1506V30.924H34.2426V31.992Z" fill="white"/>
</svg>
