<svg width="35" height="42" viewBox="0 0 35 42" fill="none" xmlns="http://www.w3.org/2000/svg">
<path d="M7.5 36.5H6.408L2.016 29.84V36.5H0.924V28.124H2.016L6.408 34.772V28.124H7.5V36.5ZM12.2295 36.608C11.6135 36.608 11.0535 36.468 10.5495 36.188C10.0535 35.908 9.6615 35.512 9.3735 35C9.0935 34.48 8.9535 33.88 8.9535 33.2C8.9535 32.528 9.0975 31.936 9.3855 31.424C9.6815 30.904 10.0815 30.508 10.5855 30.236C11.0895 29.956 11.6535 29.816 12.2775 29.816C12.9015 29.816 13.4655 29.956 13.9695 30.236C14.4735 30.508 14.8695 30.9 15.1575 31.412C15.4535 31.924 15.6015 32.52 15.6015 33.2C15.6015 33.88 15.4495 34.48 15.1455 35C14.8495 35.512 14.4455 35.908 13.9335 36.188C13.4215 36.468 12.8535 36.608 12.2295 36.608ZM12.2295 35.648C12.6215 35.648 12.9895 35.556 13.3335 35.372C13.6775 35.188 13.9535 34.912 14.1615 34.544C14.3775 34.176 14.4855 33.728 14.4855 33.2C14.4855 32.672 14.3815 32.224 14.1735 31.856C13.9655 31.488 13.6935 31.216 13.3575 31.04C13.0215 30.856 12.6575 30.764 12.2655 30.764C11.8655 30.764 11.4975 30.856 11.1615 31.04C10.8335 31.216 10.5695 31.488 10.3695 31.856C10.1695 32.224 10.0695 32.672 10.0695 33.2C10.0695 33.736 10.1655 34.188 10.3575 34.556C10.5575 34.924 10.8215 35.2 11.1495 35.384C11.4775 35.56 11.8375 35.648 12.2295 35.648ZM18.3693 30.824V34.7C18.3693 35.02 18.4373 35.248 18.5733 35.384C18.7093 35.512 18.9453 35.576 19.2813 35.576H20.0853V36.5H19.1013C18.4933 36.5 18.0373 36.36 17.7333 36.08C17.4293 35.8 17.2773 35.34 17.2773 34.7V30.824H16.4253V29.924H17.2773V28.268H18.3693V29.924H20.0853V30.824H18.3693ZM27.4084 32.96C27.4084 33.168 27.3964 33.388 27.3724 33.62H22.1164C22.1564 34.268 22.3764 34.776 22.7764 35.144C23.1844 35.504 23.6764 35.684 24.2524 35.684C24.7244 35.684 25.1164 35.576 25.4284 35.36C25.7484 35.136 25.9724 34.84 26.1004 34.472H27.2764C27.1004 35.104 26.7484 35.62 26.2204 36.02C25.6924 36.412 25.0364 36.608 24.2524 36.608C23.6284 36.608 23.0684 36.468 22.5724 36.188C22.0844 35.908 21.7004 35.512 21.4204 35C21.1404 34.48 21.0004 33.88 21.0004 33.2C21.0004 32.52 21.1364 31.924 21.4084 31.412C21.6804 30.9 22.0604 30.508 22.5484 30.236C23.0444 29.956 23.6124 29.816 24.2524 29.816C24.8764 29.816 25.4284 29.952 25.9084 30.224C26.3884 30.496 26.7564 30.872 27.0124 31.352C27.2764 31.824 27.4084 32.36 27.4084 32.96ZM26.2804 32.732C26.2804 32.316 26.1884 31.96 26.0044 31.664C25.8204 31.36 25.5684 31.132 25.2484 30.98C24.9364 30.82 24.5884 30.74 24.2044 30.74C23.6524 30.74 23.1804 30.916 22.7884 31.268C22.4044 31.62 22.1844 32.108 22.1284 32.732H26.2804ZM31.1778 36.608C30.6738 36.608 30.2218 36.524 29.8218 36.356C29.4218 36.18 29.1058 35.94 28.8738 35.636C28.6418 35.324 28.5138 34.968 28.4898 34.568H29.6178C29.6498 34.896 29.8018 35.164 30.0738 35.372C30.3538 35.58 30.7178 35.684 31.1658 35.684C31.5818 35.684 31.9098 35.592 32.1498 35.408C32.3898 35.224 32.5098 34.992 32.5098 34.712C32.5098 34.424 32.3818 34.212 32.1258 34.076C31.8698 33.932 31.4738 33.792 30.9378 33.656C30.4498 33.528 30.0498 33.4 29.7378 33.272C29.4338 33.136 29.1698 32.94 28.9458 32.684C28.7298 32.42 28.6218 32.076 28.6218 31.652C28.6218 31.316 28.7218 31.008 28.9218 30.728C29.1218 30.448 29.4058 30.228 29.7738 30.068C30.1418 29.9 30.5618 29.816 31.0338 29.816C31.7618 29.816 32.3498 30 32.7978 30.368C33.2458 30.736 33.4858 31.24 33.5178 31.88H32.4258C32.4018 31.536 32.2618 31.26 32.0058 31.052C31.7578 30.844 31.4218 30.74 30.9978 30.74C30.6058 30.74 30.2938 30.824 30.0618 30.992C29.8298 31.16 29.7138 31.38 29.7138 31.652C29.7138 31.868 29.7818 32.048 29.9178 32.192C30.0618 32.328 30.2378 32.44 30.4458 32.528C30.6618 32.608 30.9578 32.7 31.3338 32.804C31.8058 32.932 32.1898 33.06 32.4858 33.188C32.7818 33.308 33.0338 33.492 33.2418 33.74C33.4578 33.988 33.5698 34.312 33.5778 34.712C33.5778 35.072 33.4778 35.396 33.2778 35.684C33.0778 35.972 32.7938 36.2 32.4258 36.368C32.0658 36.528 31.6498 36.608 31.1778 36.608Z" fill="white"/>
<path d="M25 2.5V11.5H20V16.5H11V2.5H25ZM25 0.5H11C9.9 0.5 9 1.4 9 2.5V16.5C9 17.6 9.9 18.5 11 18.5H21L27 12.5V2.5C27 1.4 26.1 0.5 25 0.5ZM18 11.5H13V9.5H18V11.5ZM23 7.5H13V5.5H23V7.5Z" fill="#E68515"/>
</svg>
