<svg width="20" height="21" viewBox="0 0 20 21" fill="none" xmlns="http://www.w3.org/2000/svg">
<path d="M0 17.5V15.5H2V8.5C2 7.08333 2.425 5.84567 3.275 4.787C4.125 3.729 5.2 3.03333 6.5 2.7V0.5H9.5V2.7C9.91667 2.8 10.3083 2.94167 10.675 3.125C11.0417 3.30833 11.3833 3.53333 11.7 3.8L10.988 4.512L10.275 5.225C9.95833 4.99167 9.60833 4.81267 9.225 4.688C8.84167 4.56267 8.43333 4.5 8 4.5C6.9 4.5 5.95833 4.89167 5.175 5.675C4.39167 6.45833 4 7.4 4 8.5V15.5H12V12.5H14V15.5H16V17.5H0ZM8 20.5C7.45 20.5 6.97933 20.3043 6.588 19.913C6.196 19.521 6 19.05 6 18.5H10C10 19.05 9.80433 19.521 9.413 19.913C9.021 20.3043 8.55 20.5 8 20.5ZM15 11.5V8.5H12V6.5H15V3.5H17V6.5H20V8.5H17V11.5H15Z" fill="#D41E05"/>
</svg>
