<svg width="49" height="44" viewBox="0 0 49 44" fill="none" xmlns="http://www.w3.org/2000/svg">
<g clip-path="url(#clip0_613_369)">
<path d="M22.0779 0.500002C22.3719 0.500002 22.6349 0.683002 22.7339 0.957002L23.4399 2.914C23.6929 2.977 23.9099 3.04 24.0939 3.106C24.2949 3.178 24.5539 3.287 24.8739 3.436L26.5179 2.566C26.6521 2.49491 26.8057 2.46925 26.9557 2.49287C27.1057 2.51649 27.244 2.58811 27.3499 2.697L28.7959 4.192C28.9879 4.391 29.0419 4.682 28.9339 4.936L28.1629 6.743C28.2909 6.978 28.3929 7.179 28.4709 7.347C28.5549 7.53 28.6589 7.782 28.7829 8.107L30.5799 8.877C30.8499 8.992 31.0169 9.262 30.9989 9.551L30.8669 11.626C30.8579 11.7608 30.8095 11.89 30.7277 11.9975C30.6459 12.1051 30.5344 12.1863 30.4069 12.231L28.7049 12.836C28.6559 13.071 28.6049 13.272 28.5509 13.442C28.4638 13.7045 28.3643 13.9628 28.2529 14.216L29.1079 16.106C29.1682 16.2388 29.1845 16.3874 29.1542 16.5301C29.124 16.6728 29.0489 16.8021 28.9399 16.899L27.3139 18.351C27.2068 18.4462 27.0732 18.5064 26.9309 18.5236C26.7886 18.5408 26.6445 18.514 26.5179 18.447L24.8419 17.559C24.5797 17.6978 24.3092 17.8204 24.0319 17.926L23.2999 18.2L22.6499 20C22.6017 20.1318 22.5148 20.246 22.4006 20.3276C22.2864 20.4091 22.1502 20.4542 22.0099 20.457L20.1099 20.5C19.9658 20.5038 19.8242 20.4628 19.7044 20.3828C19.5846 20.3027 19.4925 20.1875 19.4409 20.053L18.6749 18.026C18.4135 17.9367 18.1548 17.84 17.8989 17.736C17.6896 17.6454 17.4835 17.5477 17.2809 17.443L15.3809 18.255C15.2557 18.3084 15.1177 18.3243 14.9836 18.3007C14.8496 18.2771 14.7253 18.215 14.6259 18.122L13.2199 16.803C13.1152 16.7052 13.0439 16.577 13.0161 16.4365C12.9883 16.296 13.0053 16.1503 13.0649 16.02L13.8819 14.24C13.7732 14.0292 13.6725 13.8144 13.5799 13.596C13.4718 13.3287 13.3717 13.0583 13.2799 12.785L11.4899 12.24C11.3444 12.196 11.2175 12.1052 11.1289 11.9817C11.0403 11.8582 10.9949 11.7089 10.9999 11.557L11.0699 9.636C11.0749 9.51066 11.114 9.38907 11.1831 9.28438C11.2522 9.17968 11.3486 9.09587 11.4619 9.042L13.3399 8.14C13.4269 7.821 13.5029 7.573 13.5699 7.392C13.6642 7.15025 13.769 6.91269 13.8839 6.68L13.0699 4.96C13.0081 4.82938 12.9893 4.68254 13.0163 4.54059C13.0433 4.39864 13.1145 4.26889 13.2199 4.17L14.6239 2.844C14.7223 2.75117 14.8454 2.68876 14.9785 2.66428C15.1116 2.6398 15.2489 2.65429 15.3739 2.706L17.2719 3.49C17.4819 3.35 17.6719 3.237 17.8439 3.146C18.0489 3.037 18.3229 2.923 18.6679 2.8L19.3279 0.959002C19.3767 0.82427 19.4659 0.707883 19.5833 0.625733C19.7007 0.543583 19.8406 0.499674 19.9839 0.500002H22.0779ZM21.5879 1.877H20.4749L19.8699 3.571C19.8343 3.66978 19.7768 3.75918 19.7016 3.83246C19.6264 3.90574 19.5355 3.96097 19.4359 3.994C18.9999 4.139 18.6849 4.264 18.5009 4.361C18.3059 4.464 18.0569 4.621 17.7609 4.831C17.664 4.89899 17.5515 4.94142 17.4339 4.95436C17.3162 4.96729 17.1972 4.95032 17.0879 4.905L15.2579 4.15L14.5449 4.824L15.2879 6.394C15.3324 6.48741 15.3549 6.58974 15.3539 6.6932C15.3529 6.79665 15.3282 6.89851 15.2819 6.991C15.0819 7.392 14.9469 7.688 14.8789 7.87C14.7746 8.17297 14.6845 8.48064 14.6089 8.792C14.5838 8.88945 14.5376 8.98023 14.4737 9.05797C14.4098 9.1357 14.3296 9.19851 14.2389 9.242L12.4489 10.101L12.4129 11.081L14.0329 11.573C14.2479 11.638 14.4179 11.803 14.4889 12.015C14.6489 12.495 14.7769 12.849 14.8689 13.071C14.9908 13.3527 15.1256 13.6287 15.2729 13.898C15.3227 13.9907 15.3504 14.0936 15.3537 14.1988C15.357 14.3039 15.3358 14.4084 15.2919 14.504L14.5409 16.142L15.2519 16.81L17.0339 16.048C17.1299 16.007 17.2338 15.9879 17.3381 15.992C17.4424 15.9962 17.5445 16.0235 17.6369 16.072C18.0019 16.264 18.2739 16.397 18.4459 16.47C18.6209 16.543 18.9559 16.665 19.4419 16.831C19.5384 16.8639 19.6264 16.9178 19.6997 16.9886C19.773 17.0595 19.8297 17.1457 19.8659 17.241L20.5739 19.112L21.4999 19.092L22.0969 17.438C22.131 17.3436 22.1853 17.2578 22.2559 17.1865C22.3265 17.1152 22.4118 17.0601 22.5059 17.025L23.5429 16.637C23.8049 16.54 24.1229 16.387 24.4939 16.177C24.5966 16.1193 24.7121 16.0884 24.8299 16.087C24.9476 16.0856 25.0639 16.1138 25.1679 16.169L26.7449 17.004L27.6319 16.213L26.8559 14.5C26.816 14.4121 26.7953 14.3167 26.7952 14.2201C26.795 14.1236 26.8153 14.0281 26.8549 13.94C27.0369 13.533 27.1599 13.226 27.2219 13.03C27.2829 12.838 27.3459 12.561 27.4069 12.205C27.4279 12.0841 27.4807 11.9709 27.56 11.8772C27.6393 11.7836 27.7421 11.7127 27.8579 11.672L29.5059 11.087L29.5779 9.947L27.9579 9.253C27.8716 9.21629 27.7937 9.16243 27.7289 9.0947C27.6641 9.02697 27.6138 8.94679 27.5809 8.859C27.4653 8.54024 27.3393 8.2254 27.2029 7.915C27.0737 7.64473 26.9336 7.37985 26.7829 7.121C26.7307 7.02955 26.7003 6.92725 26.6942 6.82211C26.6882 6.71697 26.7065 6.61186 26.7479 6.515L27.4729 4.815L26.7089 4.025L25.2209 4.813C25.1237 4.86452 25.0159 4.89254 24.9059 4.8948C24.796 4.89705 24.6871 4.87349 24.5879 4.826C24.272 4.66897 23.949 4.52681 23.6199 4.4C23.3392 4.30575 23.053 4.22894 22.7629 4.17C22.6478 4.14559 22.5407 4.09231 22.4519 4.01517C22.363 3.93802 22.2952 3.83955 22.2549 3.729L21.5869 1.876L21.5879 1.877ZM21.0239 6.141C23.4589 6.141 25.4339 8.094 25.4339 10.502C25.4339 12.91 23.4589 14.862 21.0239 14.862C18.5879 14.862 16.6139 12.91 16.6139 10.502C16.6139 8.094 18.5879 6.142 21.0239 6.142V6.141ZM21.0239 7.519C19.3569 7.519 18.0059 8.854 18.0059 10.502C18.0059 12.15 19.3569 13.486 21.0239 13.486C22.6899 13.486 24.0409 12.15 24.0409 10.502C24.0409 8.854 22.6909 7.519 21.0239 7.519Z" fill="white"/>
</g>
<path d="M3.576 38.584C3.024 38.584 2.528 38.488 2.088 38.296C1.656 38.096 1.316 37.824 1.068 37.48C0.82 37.128 0.692 36.724 0.684 36.268H1.848C1.888 36.66 2.048 36.992 2.328 37.264C2.616 37.528 3.032 37.66 3.576 37.66C4.096 37.66 4.504 37.532 4.8 37.276C5.104 37.012 5.256 36.676 5.256 36.268C5.256 35.948 5.168 35.688 4.992 35.488C4.816 35.288 4.596 35.136 4.332 35.032C4.068 34.928 3.712 34.816 3.264 34.696C2.712 34.552 2.268 34.408 1.932 34.264C1.604 34.12 1.32 33.896 1.08 33.592C0.848 33.28 0.732 32.864 0.732 32.344C0.732 31.888 0.848 31.484 1.08 31.132C1.312 30.78 1.636 30.508 2.052 30.316C2.476 30.124 2.96 30.028 3.504 30.028C4.288 30.028 4.928 30.224 5.424 30.616C5.928 31.008 6.212 31.528 6.276 32.176H5.076C5.036 31.856 4.868 31.576 4.572 31.336C4.276 31.088 3.884 30.964 3.396 30.964C2.94 30.964 2.568 31.084 2.28 31.324C1.992 31.556 1.848 31.884 1.848 32.308C1.848 32.612 1.932 32.86 2.1 33.052C2.276 33.244 2.488 33.392 2.736 33.496C2.992 33.592 3.348 33.704 3.804 33.832C4.356 33.984 4.8 34.136 5.136 34.288C5.472 34.432 5.76 34.66 6 34.972C6.24 35.276 6.36 35.692 6.36 36.22C6.36 36.628 6.252 37.012 6.036 37.372C5.82 37.732 5.5 38.024 5.076 38.248C4.652 38.472 4.152 38.584 3.576 38.584ZM13.967 34.96C13.967 35.168 13.955 35.388 13.931 35.62H8.67497C8.71497 36.268 8.93497 36.776 9.33497 37.144C9.74297 37.504 10.235 37.684 10.811 37.684C11.283 37.684 11.675 37.576 11.987 37.36C12.307 37.136 12.531 36.84 12.659 36.472H13.835C13.659 37.104 13.307 37.62 12.779 38.02C12.251 38.412 11.595 38.608 10.811 38.608C10.187 38.608 9.62697 38.468 9.13097 38.188C8.64297 37.908 8.25897 37.512 7.97897 37C7.69897 36.48 7.55897 35.88 7.55897 35.2C7.55897 34.52 7.69497 33.924 7.96697 33.412C8.23897 32.9 8.61897 32.508 9.10697 32.236C9.60297 31.956 10.171 31.816 10.811 31.816C11.435 31.816 11.987 31.952 12.467 32.224C12.947 32.496 13.315 32.872 13.571 33.352C13.835 33.824 13.967 34.36 13.967 34.96ZM12.839 34.732C12.839 34.316 12.747 33.96 12.563 33.664C12.379 33.36 12.127 33.132 11.807 32.98C11.495 32.82 11.147 32.74 10.763 32.74C10.211 32.74 9.73897 32.916 9.34697 33.268C8.96297 33.62 8.74297 34.108 8.68697 34.732H12.839ZM16.7404 32.824V36.7C16.7404 37.02 16.8084 37.248 16.9444 37.384C17.0804 37.512 17.3164 37.576 17.6524 37.576H18.4564V38.5H17.4724C16.8644 38.5 16.4084 38.36 16.1044 38.08C15.8004 37.8 15.6484 37.34 15.6484 36.7V32.824H14.7964V31.924H15.6484V30.268H16.7404V31.924H18.4564V32.824H16.7404ZM21.1115 32.824V36.7C21.1115 37.02 21.1795 37.248 21.3155 37.384C21.4515 37.512 21.6875 37.576 22.0235 37.576H22.8275V38.5H21.8435C21.2355 38.5 20.7795 38.36 20.4755 38.08C20.1715 37.8 20.0195 37.34 20.0195 36.7V32.824H19.1675V31.924H20.0195V30.268H21.1115V31.924H22.8275V32.824H21.1115ZM24.7146 30.856C24.5066 30.856 24.3306 30.784 24.1866 30.64C24.0426 30.496 23.9706 30.32 23.9706 30.112C23.9706 29.904 24.0426 29.728 24.1866 29.584C24.3306 29.44 24.5066 29.368 24.7146 29.368C24.9146 29.368 25.0826 29.44 25.2186 29.584C25.3626 29.728 25.4346 29.904 25.4346 30.112C25.4346 30.32 25.3626 30.496 25.2186 30.64C25.0826 30.784 24.9146 30.856 24.7146 30.856ZM25.2426 31.924V38.5H24.1506V31.924H25.2426ZM30.3077 31.804C31.1077 31.804 31.7557 32.048 32.2517 32.536C32.7477 33.016 32.9957 33.712 32.9957 34.624V38.5H31.9157V34.78C31.9157 34.124 31.7517 33.624 31.4237 33.28C31.0957 32.928 30.6477 32.752 30.0797 32.752C29.5037 32.752 29.0437 32.932 28.6997 33.292C28.3637 33.652 28.1957 34.176 28.1957 34.864V38.5H27.1037V31.924H28.1957V32.86C28.4117 32.524 28.7037 32.264 29.0717 32.08C29.4477 31.896 29.8597 31.804 30.3077 31.804ZM37.4915 31.816C38.0595 31.816 38.5555 31.94 38.9795 32.188C39.4115 32.436 39.7315 32.748 39.9395 33.124V31.924H41.0435V38.644C41.0435 39.244 40.9155 39.776 40.6595 40.24C40.4035 40.712 40.0355 41.08 39.5555 41.344C39.0835 41.608 38.5315 41.74 37.8995 41.74C37.0355 41.74 36.3155 41.536 35.7395 41.128C35.1635 40.72 34.8235 40.164 34.7195 39.46H35.7995C35.9195 39.86 36.1675 40.18 36.5435 40.42C36.9195 40.668 37.3715 40.792 37.8995 40.792C38.4995 40.792 38.9875 40.604 39.3635 40.228C39.7475 39.852 39.9395 39.324 39.9395 38.644V37.264C39.7235 37.648 39.4035 37.968 38.9795 38.224C38.5555 38.48 38.0595 38.608 37.4915 38.608C36.9075 38.608 36.3755 38.464 35.8955 38.176C35.4235 37.888 35.0515 37.484 34.7795 36.964C34.5075 36.444 34.3715 35.852 34.3715 35.188C34.3715 34.516 34.5075 33.928 34.7795 33.424C35.0515 32.912 35.4235 32.516 35.8955 32.236C36.3755 31.956 36.9075 31.816 37.4915 31.816ZM39.9395 35.2C39.9395 34.704 39.8395 34.272 39.6395 33.904C39.4395 33.536 39.1675 33.256 38.8235 33.064C38.4875 32.864 38.1155 32.764 37.7075 32.764C37.2995 32.764 36.9275 32.86 36.5915 33.052C36.2555 33.244 35.9875 33.524 35.7875 33.892C35.5875 34.26 35.4875 34.692 35.4875 35.188C35.4875 35.692 35.5875 36.132 35.7875 36.508C35.9875 36.876 36.2555 37.16 36.5915 37.36C36.9275 37.552 37.2995 37.648 37.7075 37.648C38.1155 37.648 38.4875 37.552 38.8235 37.36C39.1675 37.16 39.4395 36.876 39.6395 36.508C39.8395 36.132 39.9395 35.696 39.9395 35.2ZM45.2168 38.608C44.7128 38.608 44.2608 38.524 43.8608 38.356C43.4608 38.18 43.1448 37.94 42.9128 37.636C42.6808 37.324 42.5528 36.968 42.5288 36.568H43.6568C43.6888 36.896 43.8408 37.164 44.1128 37.372C44.3928 37.58 44.7568 37.684 45.2048 37.684C45.6208 37.684 45.9488 37.592 46.1888 37.408C46.4288 37.224 46.5488 36.992 46.5488 36.712C46.5488 36.424 46.4208 36.212 46.1648 36.076C45.9088 35.932 45.5128 35.792 44.9768 35.656C44.4888 35.528 44.0888 35.4 43.7768 35.272C43.4728 35.136 43.2088 34.94 42.9848 34.684C42.7688 34.42 42.6608 34.076 42.6608 33.652C42.6608 33.316 42.7608 33.008 42.9608 32.728C43.1608 32.448 43.4448 32.228 43.8128 32.068C44.1808 31.9 44.6008 31.816 45.0728 31.816C45.8008 31.816 46.3888 32 46.8368 32.368C47.2848 32.736 47.5248 33.24 47.5568 33.88H46.4648C46.4408 33.536 46.3008 33.26 46.0448 33.052C45.7968 32.844 45.4608 32.74 45.0368 32.74C44.6448 32.74 44.3328 32.824 44.1008 32.992C43.8688 33.16 43.7528 33.38 43.7528 33.652C43.7528 33.868 43.8208 34.048 43.9568 34.192C44.1008 34.328 44.2768 34.44 44.4848 34.528C44.7008 34.608 44.9968 34.7 45.3728 34.804C45.8448 34.932 46.2288 35.06 46.5248 35.188C46.8208 35.308 47.0728 35.492 47.2808 35.74C47.4968 35.988 47.6088 36.312 47.6168 36.712C47.6168 37.072 47.5168 37.396 47.3168 37.684C47.1168 37.972 46.8328 38.2 46.4648 38.368C46.1048 38.528 45.6888 38.608 45.2168 38.608Z" fill="white"/>
<defs>
<clipPath id="clip0_613_369">
<rect width="20" height="20" fill="white" transform="translate(11 0.5)"/>
</clipPath>
</defs>
</svg>
